<?xml version="1.0" encoding="UTF-8"?>
<svg xmlns="http://www.w3.org/2000/svg" xmlns:xlink="http://www.w3.org/1999/xlink" viewBox="120 870 1760 260">
<path fill-rule="nonzero" fill="rgb(0%, 0%, 0%)" fill-opacity="1" d="M 817.273438 1062.304688 C 803.261719 1062.304688 790.816406 1058.796875 779.933594 1051.78125 C 769.050781 1044.765625 760.515625 1034.855469 754.332031 1022.054688 C 748.144531 1009.253906 745.050781 994.160156 745.050781 976.769531 C 745.050781 959.304688 748.144531 944.152344 754.332031 931.316406 C 760.515625 918.480469 769.050781 908.550781 779.933594 901.535156 C 790.816406 894.519531 803.261719 891.011719 817.273438 891.011719 C 829.125 891.011719 839.691406 893.417969 848.972656 898.234375 C 858.25 903.046875 865.851562 909.578125 871.777344 917.824219 C 877.703125 926.074219 881.5625 935.34375 883.351562 945.644531 L 867.472656 945.644531 C 865.910156 938.035156 862.816406 931.222656 858.195312 925.214844 C 853.574219 919.207031 847.777344 914.484375 840.808594 911.050781 C 833.839844 907.621094 825.996094 905.902344 817.273438 905.902344 C 806.839844 905.902344 797.320312 908.625 788.710938 914.074219 C 780.101562 919.523438 773.242188 927.507812 768.136719 938.035156 C 763.03125 948.554688 760.480469 961.46875 760.480469 976.769531 C 760.480469 992.070312 763.050781 1004.984375 768.195312 1015.507812 C 773.335938 1026.03125 780.195312 1033.976562 788.765625 1039.351562 C 797.335938 1044.726562 806.839844 1047.414062 817.273438 1047.414062 C 825.996094 1047.414062 833.839844 1045.675781 840.808594 1042.207031 C 847.777344 1038.738281 853.574219 1033.996094 858.195312 1027.992188 C 862.816406 1021.980469 865.910156 1015.207031 867.472656 1007.667969 L 883.351562 1007.667969 C 881.636719 1017.820312 877.816406 1027.019531 871.890625 1035.265625 C 865.964844 1043.515625 858.363281 1050.082031 849.082031 1054.972656 C 839.800781 1059.859375 829.199219 1062.304688 817.273438 1062.304688 "/>
<path fill-rule="nonzero" fill="rgb(0%, 0%, 0%)" fill-opacity="1" d="M 957.910156 1048.980469 C 966.480469 1048.980469 973.730469 1046.667969 979.65625 1042.039062 C 985.582031 1037.414062 990.109375 1031.253906 993.242188 1023.566406 C 996.371094 1015.882812 997.9375 1007.410156 997.9375 998.152344 C 997.9375 988.824219 996.371094 980.296875 993.242188 972.570312 C 990.109375 964.84375 985.5625 958.652344 979.601562 953.988281 C 973.636719 949.324219 966.410156 946.988281 957.910156 946.988281 C 949.414062 946.988281 942.203125 949.324219 936.277344 953.988281 C 930.351562 958.652344 925.824219 964.84375 922.695312 972.570312 C 919.5625 980.296875 918 988.824219 918 998.152344 C 918 1007.410156 919.542969 1015.882812 922.640625 1023.566406 C 925.730469 1031.253906 930.257812 1037.414062 936.222656 1042.039062 C 942.183594 1046.667969 949.414062 1048.980469 957.910156 1048.980469 M 957.910156 1062.75 C 947.027344 1062.75 937.453125 1060.007812 929.179688 1054.523438 C 920.902344 1049.035156 914.421875 1041.441406 909.726562 1031.738281 C 905.03125 1022.039062 902.679688 1010.839844 902.679688 998.152344 C 902.679688 985.316406 905.03125 974.027344 909.726562 964.289062 C 914.421875 954.546875 920.902344 946.933594 929.179688 941.445312 C 937.453125 935.960938 947.027344 933.21875 957.910156 933.21875 C 968.71875 933.21875 978.277344 935.960938 986.589844 941.445312 C 994.898438 946.933594 1001.402344 954.546875 1006.097656 964.289062 C 1010.792969 974.027344 1013.144531 985.316406 1013.144531 998.152344 C 1013.144531 1010.839844 1010.792969 1022.039062 1006.097656 1031.738281 C 1001.402344 1041.441406 994.898438 1049.035156 986.589844 1054.523438 C 978.277344 1060.007812 968.71875 1062.75 957.910156 1062.75 "/>
<path fill-rule="nonzero" fill="rgb(0%, 0%, 0%)" fill-opacity="1" d="M 1052.863281 982.03125 L 1052.863281 1060.066406 L 1037.65625 1060.066406 L 1037.65625 934.898438 L 1052.304688 934.898438 L 1052.414062 957.960938 C 1056.21875 949.304688 1061.542969 943.015625 1068.402344 939.097656 C 1075.261719 935.179688 1082.9375 933.21875 1091.433594 933.21875 C 1104.105469 933.21875 1114.390625 937.15625 1122.292969 945.03125 C 1130.191406 952.90625 1134.144531 964.269531 1134.144531 979.121094 L 1134.144531 1060.066406 L 1119.050781 1060.066406 L 1119.050781 980.238281 C 1119.050781 970.015625 1116.179688 961.9375 1110.441406 956 C 1104.699219 950.066406 1097.027344 947.101562 1087.410156 947.101562 C 1077.570312 947.101562 1069.355469 950.238281 1062.753906 956.503906 C 1056.160156 962.773438 1052.863281 971.28125 1052.863281 982.03125 "/>
<path fill-rule="nonzero" fill="rgb(0%, 0%, 0%)" fill-opacity="1" d="M 1173.058594 988.972656 L 1250.429688 988.972656 C 1249.605469 976.808594 1245.878906 966.75 1239.246094 958.800781 C 1232.613281 950.851562 1223.707031 946.878906 1212.527344 946.878906 C 1204.996094 946.878906 1198.363281 948.78125 1192.625 952.589844 C 1186.886719 956.394531 1182.300781 961.488281 1178.871094 967.867188 C 1175.445312 974.25 1173.507812 981.285156 1173.058594 988.972656 M 1214.875 1062.75 C 1203.167969 1062.75 1193.050781 1060.007812 1184.519531 1054.523438 C 1175.984375 1049.035156 1169.386719 1041.441406 1164.730469 1031.738281 C 1160.070312 1022.035156 1157.742188 1010.878906 1157.742188 998.265625 C 1157.742188 985.652344 1160.035156 974.457031 1164.617188 964.679688 C 1169.203125 954.902344 1175.613281 947.214844 1183.851562 941.613281 C 1192.082031 936.015625 1201.644531 933.21875 1212.527344 933.21875 C 1221.621094 933.21875 1230.230469 935.457031 1238.351562 939.933594 C 1246.476562 944.414062 1253.070312 951.246094 1258.140625 960.425781 C 1263.210938 969.605469 1265.742188 981.285156 1265.742188 995.464844 L 1265.742188 1002.070312 L 1173.058594 1002.070312 C 1173.355469 1016.328125 1177.269531 1027.730469 1184.796875 1036.273438 C 1192.328125 1044.820312 1202.386719 1049.09375 1214.988281 1049.09375 C 1223.707031 1049.09375 1230.863281 1047.078125 1236.453125 1043.046875 C 1242.042969 1039.015625 1245.992188 1034.242188 1248.304688 1028.71875 L 1262.726562 1033.308594 C 1259.890625 1041.144531 1254.355469 1048.011719 1246.121094 1053.90625 C 1237.886719 1059.804688 1227.46875 1062.75 1214.875 1062.75 "/>
<path fill-rule="nonzero" fill="rgb(0%, 0%, 0%)" fill-opacity="1" d="M 1337.023438 1045.0625 C 1348.949219 1045.0625 1358.230469 1040.792969 1364.863281 1032.242188 C 1371.496094 1023.699219 1374.8125 1011.921875 1374.8125 996.921875 C 1374.8125 987.292969 1373.339844 978.710938 1370.398438 971.171875 C 1367.453125 963.632812 1363.1875 957.71875 1357.59375 953.425781 C 1352.003906 949.132812 1345.148438 946.988281 1337.023438 946.988281 C 1328.824219 946.988281 1321.875 949.210938 1316.171875 953.648438 C 1310.472656 958.089844 1306.167969 964.082031 1303.261719 971.621094 C 1300.355469 979.160156 1298.898438 987.589844 1298.898438 996.921875 C 1298.898438 1011.179688 1302.199219 1022.765625 1308.792969 1031.683594 C 1315.390625 1040.605469 1324.800781 1045.0625 1337.023438 1045.0625 M 1337.917969 1109.550781 C 1325.171875 1109.550781 1314.71875 1107.160156 1306.558594 1102.382812 C 1298.398438 1097.605469 1292.527344 1091.523438 1288.949219 1084.132812 L 1301.46875 1076.519531 C 1304.15625 1081.375 1308.292969 1085.851562 1313.878906 1089.957031 C 1319.46875 1094.0625 1327.484375 1096.113281 1337.917969 1096.113281 C 1348.949219 1096.113281 1357.820312 1093.371094 1364.527344 1087.886719 C 1371.234375 1082.398438 1374.589844 1073.910156 1374.589844 1062.414062 L 1374.589844 1034.316406 L 1373.136719 1034.316406 C 1371.496094 1038.195312 1369.089844 1042.023438 1365.925781 1045.792969 C 1362.757812 1049.558594 1358.636719 1052.65625 1353.570312 1055.082031 C 1348.503906 1057.507812 1342.242188 1058.722656 1334.789062 1058.722656 C 1324.875 1058.722656 1316.0625 1056.277344 1308.347656 1051.390625 C 1300.632812 1046.5 1294.578125 1039.464844 1290.179688 1030.285156 C 1285.78125 1021.105469 1283.582031 1010.09375 1283.582031 997.257812 C 1283.582031 984.492188 1285.746094 973.316406 1290.066406 963.726562 C 1294.386719 954.136719 1300.425781 946.652344 1308.179688 941.28125 C 1315.929688 935.90625 1324.910156 933.21875 1335.125 933.21875 C 1342.726562 933.21875 1349.0625 934.578125 1354.128906 937.304688 C 1359.199219 940.03125 1363.277344 943.371094 1366.371094 947.324219 C 1369.464844 951.28125 1371.832031 955.160156 1373.472656 958.96875 L 1375.035156 958.96875 L 1375.035156 934.898438 L 1389.792969 934.898438 L 1389.792969 1063.085938 C 1389.792969 1073.683594 1387.539062 1082.417969 1383.03125 1089.285156 C 1378.519531 1096.152344 1372.371094 1101.246094 1364.582031 1104.566406 C 1356.792969 1107.886719 1347.90625 1109.550781 1337.917969 1109.550781 "/>
<path fill-rule="nonzero" fill="rgb(0%, 0%, 0%)" fill-opacity="1" d="M 1435.660156 1060.066406 L 1420.453125 1060.066406 L 1420.453125 893.25 L 1435.660156 893.25 Z M 1435.660156 1060.066406 "/>
<path fill-rule="nonzero" fill="rgb(0%, 0%, 0%)" fill-opacity="1" d="M 1466.519531 934.898438 L 1481.726562 934.898438 L 1481.726562 1060.066406 L 1466.519531 1060.066406 Z M 1474.234375 911.722656 C 1471.179688 911.722656 1468.570312 910.679688 1466.410156 908.585938 C 1464.246094 906.5 1463.167969 903.996094 1463.167969 901.089844 C 1463.167969 898.175781 1464.246094 895.675781 1466.410156 893.585938 C 1468.570312 891.496094 1471.179688 890.449219 1474.234375 890.449219 C 1477.289062 890.449219 1479.898438 891.496094 1482.0625 893.585938 C 1484.222656 895.675781 1485.304688 898.175781 1485.304688 901.089844 C 1485.304688 903.996094 1484.222656 906.5 1482.0625 908.585938 C 1479.898438 910.679688 1477.289062 911.722656 1474.234375 911.722656 "/>
<path fill-rule="nonzero" fill="rgb(0%, 0%, 0%)" fill-opacity="1" d="M 1547.921875 1049.316406 C 1555.527344 1049.316406 1562.121094 1047.621094 1567.714844 1044.222656 C 1573.304688 1040.828125 1577.625 1036.3125 1580.679688 1030.675781 C 1583.734375 1025.042969 1585.265625 1018.828125 1585.265625 1012.035156 L 1585.265625 994.234375 C 1583.847656 995.578125 1581.164062 996.753906 1577.214844 997.761719 C 1573.261719 998.769531 1569.015625 999.589844 1564.472656 1000.222656 C 1559.921875 1000.859375 1556.011719 1001.398438 1552.730469 1001.847656 C 1542.222656 1003.117188 1534.097656 1005.5625 1528.359375 1009.179688 C 1522.617188 1012.800781 1519.75 1018.304688 1519.75 1025.695312 C 1519.75 1033.160156 1522.433594 1038.960938 1527.800781 1043.101562 C 1533.164062 1047.246094 1539.875 1049.316406 1547.921875 1049.316406 M 1545.6875 1062.863281 C 1538.085938 1062.863281 1531.171875 1061.386719 1524.949219 1058.441406 C 1518.726562 1055.492188 1513.769531 1051.21875 1510.078125 1045.621094 C 1506.390625 1040.023438 1504.546875 1033.160156 1504.546875 1025.023438 C 1504.546875 1016.8125 1506.59375 1010.261719 1510.695312 1005.375 C 1514.792969 1000.488281 1520.457031 996.792969 1527.6875 994.292969 C 1534.914062 991.792969 1543.230469 989.980469 1552.621094 988.859375 C 1562.980469 987.589844 1571.011719 986.433594 1576.714844 985.390625 C 1582.414062 984.34375 1585.265625 981.433594 1585.265625 976.65625 L 1585.265625 973.746094 C 1585.265625 965.390625 1582.730469 958.800781 1577.660156 953.988281 C 1572.59375 949.171875 1565.363281 946.765625 1555.972656 946.765625 C 1547.027344 946.765625 1539.78125 948.722656 1534.226562 952.640625 C 1528.675781 956.5625 1524.816406 961.132812 1522.65625 966.359375 L 1508.121094 961.433594 C 1510.878906 954.640625 1514.757812 949.191406 1519.75 945.085938 C 1524.742188 940.984375 1530.351562 937.976562 1536.574219 936.074219 C 1542.800781 934.171875 1549.152344 933.21875 1555.636719 933.21875 C 1560.558594 933.21875 1565.625 933.871094 1570.84375 935.179688 C 1576.058594 936.484375 1580.902344 938.6875 1585.378906 941.785156 C 1589.847656 944.882812 1593.464844 949.132812 1596.222656 954.546875 C 1598.976562 959.957031 1600.359375 966.804688 1600.359375 975.089844 L 1600.359375 1060.066406 L 1585.488281 1060.066406 L 1585.488281 1040.25 L 1584.371094 1040.25 C 1581.613281 1045.996094 1577.007812 1051.203125 1570.5625 1055.867188 C 1564.117188 1060.53125 1555.824219 1062.863281 1545.6875 1062.863281 "/>
<path fill-rule="nonzero" fill="rgb(0%, 0%, 0%)" fill-opacity="1" d="M 1645.988281 982.03125 L 1645.988281 1060.066406 L 1630.78125 1060.066406 L 1630.78125 934.898438 L 1645.429688 934.898438 L 1645.539062 957.960938 C 1649.34375 949.304688 1654.671875 943.015625 1661.53125 939.097656 C 1668.386719 935.179688 1676.0625 933.21875 1684.5625 933.21875 C 1697.230469 933.21875 1707.515625 937.15625 1715.417969 945.03125 C 1723.316406 952.90625 1727.269531 964.269531 1727.269531 979.121094 L 1727.269531 1060.066406 L 1712.175781 1060.066406 L 1712.175781 980.238281 C 1712.175781 970.015625 1709.304688 961.9375 1703.566406 956 C 1697.828125 950.066406 1690.152344 947.101562 1680.535156 947.101562 C 1670.695312 947.101562 1662.480469 950.238281 1655.882812 956.503906 C 1649.285156 962.773438 1645.988281 971.28125 1645.988281 982.03125 "/>
<path fill-rule="nonzero" fill="rgb(0%, 0%, 0%)" fill-opacity="1" d="M 1806.097656 1048.980469 C 1814.667969 1048.980469 1821.917969 1046.667969 1827.84375 1042.039062 C 1833.769531 1037.414062 1838.296875 1031.253906 1841.429688 1023.566406 C 1844.558594 1015.882812 1846.125 1007.410156 1846.125 998.152344 C 1846.125 988.824219 1844.558594 980.296875 1841.429688 972.570312 C 1838.296875 964.84375 1833.75 958.652344 1827.789062 953.988281 C 1821.824219 949.324219 1814.597656 946.988281 1806.097656 946.988281 C 1797.601562 946.988281 1790.390625 949.324219 1784.464844 953.988281 C 1778.539062 958.652344 1774.011719 964.84375 1770.882812 972.570312 C 1767.75 980.296875 1766.183594 988.824219 1766.183594 998.152344 C 1766.183594 1007.410156 1767.730469 1015.882812 1770.828125 1023.566406 C 1773.917969 1031.253906 1778.445312 1037.414062 1784.410156 1042.039062 C 1790.371094 1046.667969 1797.601562 1048.980469 1806.097656 1048.980469 M 1806.097656 1062.75 C 1795.214844 1062.75 1785.640625 1060.007812 1777.367188 1054.523438 C 1769.089844 1049.035156 1762.609375 1041.441406 1757.914062 1031.738281 C 1753.21875 1022.039062 1750.867188 1010.839844 1750.867188 998.152344 C 1750.867188 985.316406 1753.21875 974.027344 1757.914062 964.289062 C 1762.609375 954.546875 1769.089844 946.933594 1777.367188 941.445312 C 1785.640625 935.960938 1795.214844 933.21875 1806.097656 933.21875 C 1816.90625 933.21875 1826.464844 935.960938 1834.777344 941.445312 C 1843.085938 946.933594 1849.589844 954.546875 1854.285156 964.289062 C 1858.984375 974.027344 1861.332031 985.316406 1861.332031 998.152344 C 1861.332031 1010.839844 1858.984375 1022.039062 1854.285156 1031.738281 C 1849.589844 1041.441406 1843.085938 1049.035156 1834.777344 1054.523438 C 1826.464844 1060.007812 1816.90625 1062.75 1806.097656 1062.75 "/>
<path fill-rule="nonzero" fill="rgb(92.156982%, 0%, 15.686035%)" fill-opacity="1" d="M 185.285156 935.988281 L 138.667969 935.988281 L 138.667969 893.296875 L 283.105469 893.296875 L 283.105469 935.988281 L 236.503906 935.988281 L 236.503906 1059.867188 L 185.285156 1059.867188 Z M 185.285156 935.988281 "/>
<path fill-rule="nonzero" fill="rgb(92.156982%, 0%, 15.686035%)" fill-opacity="1" d="M 291.0625 893.296875 L 431.273438 893.296875 L 431.273438 935.988281 L 342.3125 935.988281 L 342.3125 956.746094 L 431.273438 956.746094 L 431.273438 996.417969 L 342.3125 996.417969 L 342.3125 1017.175781 L 431.296875 1017.175781 L 431.296875 1059.867188 L 291.0625 1059.867188 Z M 291.0625 893.296875 "/>
<path fill-rule="nonzero" fill="rgb(92.156982%, 0%, 15.686035%)" fill-opacity="1" d="M 491.144531 1017.175781 L 511.1875 1017.175781 C 543.113281 1017.175781 547.78125 991.273438 547.78125 975.625 C 547.78125 965.148438 544.503906 935.988281 507.457031 935.988281 L 491.144531 935.988281 Z M 439.898438 893.296875 L 524 893.296875 C 579.441406 893.296875 599.03125 934.355469 599.03125 976.335938 C 599.03125 1027.445312 572.007812 1059.867188 513.992188 1059.867188 L 439.898438 1059.867188 Z M 439.898438 893.296875 "/>
<path fill-rule="nonzero" fill="rgb(92.156982%, 0%, 15.686035%)" fill-opacity="1" d="M 672.671875 996.089844 L 657.039062 970.128906 L 641.792969 996.089844 L 604.242188 996.089844 L 639.890625 943.597656 L 605.566406 893.386719 L 643.128906 893.386719 L 657.039062 918.207031 L 671.347656 893.386719 L 708.902344 893.386719 L 674.585938 943.597656 L 710.234375 996.089844 Z M 672.671875 996.089844 "/>
</svg>
